<svg width="900" height="560" viewBox="0 0 900 560" fill="none" xmlns="http://www.w3.org/2000/svg">
  <rect width="900" height="560" fill="none"/>
  <path d="M125 321c0-39 31-71 70-73l64-4 70-94c20-27 52-43 86-43h191c35 0 68 16 88 45l63 88 41 13c31 10 52 39 52 72v43c0 27-22 49-49 49H174c-27 0-49-22-49-49v-47Z" fill="#4976A0"/>
  <path d="M379 151h217c24 0 47 12 60 32l39 59H304l75-91Z" fill="#DCEAF4"/>
  <path d="M158 337h656v39c0 18-15 33-33 33H191c-18 0-33-15-33-33v-39Z" fill="#07365A"/>
  <path d="M192 255h92l-42 80H149l43-80Z" fill="#FF6A00"/>
  <circle cx="286" cy="414" r="73" fill="#071827"/>
  <circle cx="286" cy="414" r="36" fill="#EEF3F8"/>
  <circle cx="676" cy="414" r="73" fill="#071827"/>
  <circle cx="676" cy="414" r="36" fill="#EEF3F8"/>
  <path d="M402 153h70v89H331l71-89Z" fill="#B9D1E3"/>
  <path d="M497 153h89c20 0 39 10 51 27l43 62H497v-89Z" fill="#B9D1E3"/>
  <path d="M92 463h747" stroke="#8390A1" stroke-width="10" stroke-linecap="round" opacity=".35"/>
  <path d="M758 293h53" stroke="#DCEAF4" stroke-width="13" stroke-linecap="round"/>
</svg>
